<svg width="1024" height="1024" xmlns="http://www.w3.org/2000/svg">
 <g>
  <title>background</title>
  <rect fill="none" id="canvas_background" height="1026" width="1026" y="-1" x="-1"/>
 </g>

 <g>
  <title>Layer 1</title>
  <g stroke="null" id="XMLID_1326_">
   <circle stroke="null" fill="#402604" r="414.66684" cy="511.99998" cx="512.00001" id="XMLID_1327_"/>
   <circle stroke="null" fill="#94f201" r="355.42868" cy="506.05443" cx="512.00001" id="XMLID_1329_"/>
   <path stroke="null" fill="#84d901" d="m716.37151,449.57176l-64.32075,0l45.48007,-45.64692c23.14137,-23.2233 23.13545,-60.86157 0,-84.07892c-23.12952,-23.22032 -60.6391,-23.22627 -83.77158,-0.00595l-45.48303,45.64692l0,-64.55375c0,-32.83724 -26.52091,-59.45544 -59.23812,-59.45544s-59.23812,26.6182 -59.23812,59.45544l0,64.55375l-45.48303,-45.64692c-23.13249,-23.22032 -60.64206,-23.22032 -83.77455,0c-23.13545,23.22032 -23.13545,60.86454 0,84.08189l45.48007,45.64989l-64.31779,0c-32.71721,0 -59.23812,26.6182 -59.23812,59.45544c0,32.83427 26.51794,59.45544 59.23812,59.45544l64.31779,0l-45.48007,45.64692c-23.13545,23.22032 -23.13545,60.86157 0.00296,84.08189c23.13249,23.21735 60.64206,23.2233 83.77455,0l45.48007,-45.64692l0,64.55672c0,32.84021 26.51794,59.45544 59.23812,59.45544c32.71425,0 59.23812,-26.61523 59.23812,-59.45544l0,-64.55969l45.48007,45.64692c23.13545,23.22627 60.6391,23.22032 83.77158,0c23.13545,-23.21735 23.14137,-60.86157 0,-84.07892l-45.48007,-45.64692l64.32075,-0.00297c32.72314,0.00297 59.23812,-26.61523 59.23516,-59.45247c0.00592,-32.83427 -26.51202,-59.45544 -59.23219,-59.45544z" id="XMLID_1331_"/>
   <path stroke="null" fill="#84d901" d="m509.0381,241.4777c-32.71721,0 -59.23812,26.6182 -59.23812,59.45544l0,64.55375l-45.48303,-45.64692c-23.13249,-23.22032 -60.64206,-23.22032 -83.77455,0c-23.13545,23.22032 -23.13545,60.86454 0,84.08189l45.48007,45.64989l-64.31779,0c-32.71721,0 -59.23812,26.6182 -59.23812,59.45544c0,32.83427 26.51794,59.45544 59.23812,59.45544l64.31779,0l-45.48007,45.64692c-23.13545,23.22032 -23.13545,60.86157 0.00296,84.08189c23.13249,23.21735 60.64206,23.2233 83.77455,0l45.48007,-45.64692l0,64.55672c0,32.84021 26.51794,59.45544 59.23812,59.45544c0,-121.88366 0,-349.30074 0,-535.099z" id="XMLID_1332_"/>
   <g stroke="null" id="XMLID_1333_">
    <circle stroke="null" fill="#402604" r="29.61906" cy="330.66087" cx="509.0381" id="XMLID_1334_"/>
    <circle stroke="null" r="29.61906" cy="382.9014" cx="383.37332" id="XMLID_26_" fill="#402604"/>
    <circle stroke="null" r="29.61906" cy="509.02721" cx="331.32079" id="XMLID_25_" fill="#402604"/>
    <circle stroke="null" r="29.61906" cy="635.15301" cx="383.37332" id="XMLID_24_" fill="#402604"/>
    <circle stroke="null" fill="#402604" r="29.61906" cy="687.39354" cx="509.0381" id="XMLID_23_"/>
    <circle stroke="null" fill="#402604" r="29.61904" cy="635.15004" cx="634.70288" id="XMLID_21_"/>
    <circle stroke="null" fill="#402604" r="29.61904" cy="509.02721" cx="686.75246" id="XMLID_20_"/>
    <circle stroke="null" fill="#402604" r="29.61904" cy="382.9014" cx="634.69992" id="XMLID_19_"/>
   </g>
   <circle stroke="null" fill="#FFF6D2" r="118.47625" cy="509.02721" cx="509.0381" id="XMLID_1336_"/>
  </g>
  <g id="svg_1"/>
  <g id="svg_2"/>
  <g id="svg_3"/>
  <g id="svg_4"/>
  <g id="svg_5"/>
  <g id="svg_6"/>
  <g id="svg_7"/>
  <g id="svg_8"/>
  <g id="svg_9"/>
  <g id="svg_10"/>
  <g id="svg_11"/>
  <g id="svg_12"/>
  <g id="svg_13"/>
  <g id="svg_14"/>
  <g id="svg_15"/>
 </g>
</svg>